<?xml version="1.0" standalone="no"?><!DOCTYPE svg PUBLIC "-//W3C//DTD SVG 1.1//EN" "http://www.w3.org/Graphics/SVG/1.1/DTD/svg11.dtd"><svg t="1559179869629" class="icon" style="" viewBox="0 0 1024 1024" version="1.1" xmlns="http://www.w3.org/2000/svg" p-id="6310" xmlns:xlink="http://www.w3.org/1999/xlink" width="16" height="16"><defs><style type="text/css"></style></defs><path d="M960.7 623.4C932.6 694.3 904 765 876.8 832.7c-38.5-39.4-80.1-81.8-124.3-127 83.6-119.8 86.1-247.2 1.5-375.3 42.3-43.3 83.1-85 123.7-126.5 34.8 92.7 72.1 185 103.8 279.2 16 47.7-3 95.2-20.8 140.3zM319 269.9c-41.9-42.5-83.4-84.6-120-121.8 69.6-28 147.4-60 225.7-90.6 48.7-19 99.3-23.1 148.9-4.5 81.1 30.3 161.3 62.9 242.2 94.7-40.2 38-81.5 77-125.9 118.9-122.4-80.8-248.5-81.2-370.9 3.3z m-58.4 435.6c-43.1 44-84.1 85.7-124.7 127-33.4-85.9-68.1-170.9-99.2-257.1-17.5-48.7-7.8-97.5 11.4-145 29.2-72 57.2-144.6 84.4-213.7 35.3 38.3 75 81.3 117.1 127-71.7 113.8-70 238.3 11 361.8z m298.7-169.3c12.2-56 24.4-112 35.8-164.4 109.7 72.7 164.6 246.3 38.8 334.3v-84.2C577 672.4 520.6 722.4 464.2 772.4c-3.7-2.6-7.3-5.1-11-7.7 14.8-74.7 14-146.3-42.6-208.3v99.7c-52.1-25.2-90.1-94.9-81.8-163.3 11-91.9 68.2-156.4 135.2-215.2-39.5 110 16.8 185.6 95.3 258.6z m128.5 232.1c41.7 43.8 83.3 87.6 121.4 127.6-71.3 28.2-149.4 58.7-227.2 90-62.5 25.1-121.7 13.6-181.2-11.5-68-28.7-136.9-55.3-198-79.8 36.6-36.3 79-78.4 125.5-124.5 113.5 74.3 236.6 76.4 359.5-1.8z" fill="#ffffff" p-id="6311"></path></svg>