<?xml version="1.0" standalone="no"?><!DOCTYPE svg PUBLIC "-//W3C//DTD SVG 1.1//EN" "http://www.w3.org/Graphics/SVG/1.1/DTD/svg11.dtd"><svg t="1559179895476" class="icon" style="" viewBox="0 0 1024 1024" version="1.1" xmlns="http://www.w3.org/2000/svg" p-id="6657" xmlns:xlink="http://www.w3.org/1999/xlink" width="16" height="16"><defs><style type="text/css"></style></defs><path d="M200.5 565.2c10 0 10-6.7 10-16.8V353.8c0-6.7-3.3-13.4-10-13.4-60.1 0-106.8 47-106.8 114.1-3.4 63.7 46.7 110.7 106.8 110.7z m617.5 0c63.4 0 113.5-50.3 113.5-114.1 0-63.7-53.4-110.7-116.8-110.7-6.7 0-20 0-20 10.1v204.6c3.3 10.1 13.3 10.1 23.3 10.1zM334 199.5h333.8c6.7 0 13.4-6.7 13.4-20.1-10-90.6-86.8-161-180.3-161-96.8 0-173.6 73.8-180.3 167.7 0 6.7 6.7 13.4 13.4 13.4z m534.1 681H691.2V605.4h63.4c6.7 0 10-3.4 10-10.1V316.9c0-6.7-3.3-10.1-10-10.1h-63.4v-63.7c0-6.7-3.3-10.1-10-10.1H327.3c-6.7-3.4-10 3.4-10 10.1v63.7h-63.4c-6.7-3.4-13.4 3.4-13.4 10.1v281.8c0 6.7 3.3 10.1 10 10.1H314v271.7H177.1c-33.4 0-60.1 26.8-60.1 60.4 0 33.5 26.7 63.7 60.1 63.7h691c33.4 0 60.1-26.8 60.1-60.4 0-33.5-26.8-63.7-60.1-63.7zM497.6 538.3c-50.1 0-90.1-40.3-90.1-90.6s40.1-90.6 90.1-90.6c50.1 0 90.1 40.3 90.1 90.6s-40.1 90.6-90.1 90.6z" fill="#ffffff" p-id="6658"></path></svg>