<?xml version="1.0" standalone="no"?><!DOCTYPE svg PUBLIC "-//W3C//DTD SVG 1.1//EN" "http://www.w3.org/Graphics/SVG/1.1/DTD/svg11.dtd"><svg t="1560827256262" class="icon" style="" viewBox="0 0 1024 1024" version="1.1" xmlns="http://www.w3.org/2000/svg" p-id="2839" xmlns:xlink="http://www.w3.org/1999/xlink" width="22" height="22"><defs><style type="text/css"></style></defs><path d="M126.1 1021C59.3 1021 5 966.7 5 899.9V126.1C5 59.3 59.3 5 126.1 5h773.8C966.7 5 1021 59.3 1021 126.1v773.8c0 66.8-54.3 121.1-121.1 121.1H126.1z m359.7-298.5l243.1 249.7h171c39.9 0 72.3-32.4 72.3-72.3V638.7L770.9 437.4 485.8 722.5z m-432 144.9v32.5c0 39.9 32.4 72.3 72.3 72.3h535l-344.5-341L53.8 867.4z m72.3-813.6c-39.9 0-72.3 32.4-72.3 72.3v672.3l265.5-242.3 132.5 132.5L770.9 363l201.3 204.7V126.1c0-39.9-32.4-72.3-72.3-72.3H126.1z m129 322.4c-66.8 0-121.1-54.3-121.1-121.1S188.3 134 255.1 134s121.1 54.3 121.1 121.1-54.4 121.1-121.1 121.1z m0-193.5c-39.9 0-72.3 32.4-72.3 72.3s32.4 72.3 72.3 72.3 72.3-32.4 72.3-72.3-32.4-72.3-72.3-72.3z" p-id="2840" fill="#ffffff"></path></svg>