<?xml version="1.0" standalone="no"?><!DOCTYPE svg PUBLIC "-//W3C//DTD SVG 1.1//EN" "http://www.w3.org/Graphics/SVG/1.1/DTD/svg11.dtd"><svg t="1559179747401" class="icon" style="" viewBox="0 0 1024 1024" version="1.1" xmlns="http://www.w3.org/2000/svg" p-id="5579" xmlns:xlink="http://www.w3.org/1999/xlink" width="16" height="16"><defs><style type="text/css"></style></defs><path d="M682.666667 708.266667c0 0-76.8-19.2-76.8-98.133333 0-70.4 32-93.866667 42.666667-110.933333 0 0 25.6-21.333333 8.533333-91.733333 27.733333-38.4 36.266667-102.4 2.133333-179.2-19.2-44.8-36.266667-70.4-61.866667-85.333333C580.266667 132.266667 558.933333 128 537.6 128c-38.4 0-74.666667 12.8-89.6 23.466667C405.333333 170.666667 377.6 187.733333 349.866667 256c-23.466667 55.466667 4.266667 117.333333 17.066667 149.333333-17.066667 70.4 6.4 93.866667 6.4 93.866667 12.8 17.066667 42.666667 42.666667 42.666667 110.933333 0 78.933333-76.8 98.133333-76.8 98.133333C294.4 725.333333 192 759.466667 192 874.666667c0 0 0 21.333333 21.333333 21.333333l597.333333 0c21.333333 0 21.333333-21.333333 21.333333-21.333333C832 759.466667 731.733333 725.333333 682.666667 708.266667zM236.8 853.333333c10.666667-59.733333 61.866667-83.2 117.333333-102.4l2.133333 0c38.4-10.666667 106.666667-51.2 106.666667-138.666667 0-74.666667-29.866667-110.933333-46.933333-130.133333-4.266667-4.266667-6.4-8.533333-6.4-8.533333-2.133333-2.133333-8.533333-19.2 2.133333-57.6 4.266667-19.2-2.133333-27.733333-2.133333-27.733333-10.666667-25.6-34.133333-74.666667-17.066667-115.2 21.333333-55.466667 40.533333-66.133333 76.8-81.066667 2.133333 0 4.266667-2.133333 6.4-4.266667C477.866667 183.466667 505.6 170.666667 537.6 170.666667c14.933333 0 29.866667 2.133333 40.533333 8.533333 12.8 6.4 25.6 21.333333 42.666667 64 34.133333 78.933333 12.8 121.6 2.133333 136.533333-6.4 10.666667-10.666667 23.466667-6.4 34.133333 8.533333 36.266667 2.133333 51.2 2.133333 53.333333 0 0-6.4 6.4-8.533333 10.666667-17.066667 19.2-46.933333 55.466667-46.933333 130.133333 0 87.466667 68.266667 128 106.666667 138.666667l2.133333 0c53.333333 19.2 106.666667 42.666667 117.333333 102.4L236.8 849.066667zM145.066667 701.866667c27.733333-8.533333 78.933333-40.533333 78.933333-113.066667 0-66.133333-21.333333-93.866667-32-110.933333l-2.133333-2.133333c0 0 0 0 0 0 0-2.133333-4.266667-14.933333 2.133333-38.4 2.133333-8.533333 0-19.2-2.133333-27.733333-8.533333-19.2-25.6-53.333333-12.8-81.066667 19.2-44.8 25.6-49.066667 46.933333-57.6 2.133333 0 4.266667-2.133333 6.4-2.133333 4.266667-4.266667 27.733333-10.666667 49.066667-10.666667 10.666667 0 19.2 2.133333 25.6 6.4 2.133333-6.4 4.266667-14.933333 6.4-21.333333 2.133333-6.4 6.4-12.8 8.533333-17.066667-12.8-6.4-27.733333-8.533333-42.666667-8.533333-29.866667 0-59.733333 10.666667-72.533333 17.066667-34.133333 14.933333-49.066667 27.733333-70.4 81.066667-19.2 44.8 4.266667 91.733333 14.933333 115.2-12.8 55.466667 4.266667 74.666667 4.266667 74.666667 10.666667 12.8 25.6 32 25.6 87.466667 0 61.866667-46.933333 72.533333-46.933333 72.533333C93.866667 674.133333 42.666667 704 42.666667 789.333333c0 0 0 21.333333 21.333333 21.333333l96 0c4.266667-14.933333 12.8-29.866667 19.2-42.666667l-91.733333 0C93.866667 727.466667 119.466667 712.533333 145.066667 701.866667zM891.733333 661.333333c0 0-46.933333-10.666667-46.933333-72.533333 0-55.466667 17.066667-74.666667 25.6-87.466667 0 0 19.2-19.2 4.266667-74.666667 10.666667-23.466667 34.133333-72.533333 14.933333-115.2-21.333333-53.333333-36.266667-66.133333-70.4-81.066667C806.4 224 778.666667 213.333333 746.666667 213.333333c-14.933333 0-29.866667 2.133333-42.666667 8.533333 6.4 12.8 10.666667 27.733333 12.8 40.533333 0 0 2.133333 0 2.133333 0C725.333333 258.133333 736 256 746.666667 256c21.333333 0 42.666667 8.533333 49.066667 10.666667 2.133333 2.133333 4.266667 2.133333 6.4 2.133333 21.333333 8.533333 29.866667 12.8 46.933333 57.6 10.666667 25.6-4.266667 61.866667-12.8 81.066667-4.266667 8.533333-6.4 19.2-2.133333 27.733333 6.4 23.466667 2.133333 34.133333 2.133333 38.4 0 0 0 0 0 0l-2.133333 2.133333c-10.666667 14.933333-32 44.8-32 110.933333 0 72.533333 49.066667 106.666667 78.933333 113.066667 27.733333 10.666667 53.333333 25.6 59.733333 66.133333l-91.733333 0c8.533333 12.8 14.933333 27.733333 19.2 42.666667l96 0c21.333333 0 21.333333-21.333333 21.333333-21.333333C981.333333 704 930.133333 674.133333 891.733333 661.333333z" p-id="5580" fill="#ffffff"></path></svg>